# xmcd
#
# Track frame offsets: 
#        150
#        20304
#        36817
#        58931
#        71719
#        91287
#        109145
#        129411
#        146967
#        162941
#        183625
#        188506
#        198130
#        217195
#        233872
#        254247
#        276908
#
# Disc length: 3995 seconds
#
# Revision: 0
# Processed by: cddbd v1.5.2PL0 Copyright (c) Steve Scherf et al.
# Submitted via: ExactAudioCopyFreeDBPlugin 1.0
#
DISCID=080f9911
DTITLE=Various Artist - Monika Werkstatt
DYEAR=2017
DGENRE=Blues
TTITLE0=Barbara Morgenstern and Werkstatt - Grow
TTITLE1=Natalie Beridze and Werkstatt - Doodle
TTITLE2=Gudrun Gut and Werkstatt - Green Rain
TTITLE3=Lucrecia Dalt* and Werkstatt - Blindholes
TTITLE4=Beate Bartel and Werkstatt - Feuerland
TTITLE5=Pilocka Krach and Werkstatt - Sternhagen
TTITLE6=Sonae and Werkstatt - Between Two Worlds
TTITLE7=Danielle De Picciotto and Werkstatt - Ikarus
TTITLE8=Gudrun Gut and Werkstatt - Repetition
TTITLE9=Beate Bartel and Werkstatt - M B T
TTITLE10=Pilocka Krach and Werkstatt - Who's Afraid of Justin Bieber?
TTITLE11=Islaja and Werkstatt - Sappho's Gifts
TTITLE12=Natalie Beridze and Werkstatt - Hit Bottom
TTITLE13=AGF and Werkstatt - Ninjaness
TTITLE14=Danielle De Picciotto and Werkstatt - Desert Fruit
TTITLE15=Islaja and Werkstatt - Lainaa Lause
TTITLE16=Sonae and Werkstatt - Witchcraft
EXTD=
EXTT0=
EXTT1=
EXTT2=
EXTT3=
EXTT4=
EXTT5=
EXTT6=
EXTT7=
EXTT8=
EXTT9=
EXTT10=
EXTT11=
EXTT12=
EXTT13=
EXTT14=
EXTT15=
EXTT16=
PLAYORDER=
